<?xml version="1.0" encoding="UTF-8"?>
<svg id="Calque_1" data-name="Calque 1" xmlns="http://www.w3.org/2000/svg" xmlns:xlink="http://www.w3.org/1999/xlink" viewBox="0 0 500 500">
  <defs>
    <style>
      .cls-1 {
        fill: none;
      }

      .cls-1, .cls-2 {
        stroke-width: 0px;
      }

      .cls-2 {
        fill: #fff;
      }

      .cls-3 {
        clip-path: url(#clippath);
      }
    </style>
    <clipPath id="clippath">
      <rect class="cls-1" x="-1216.14" y="-1532.5" width="2136.27" height="1373"/>
    </clipPath>
  </defs>
  <g class="cls-3">
    <image width="1600" height="1166" transform="translate(-1274.69 -1528.36) scale(1.38)" xlink:href="../../../../../../../../../../Gaia Sale &amp; Services/Graphic Design/Ressources/Wallpapers for Design/Black Woman Skin copie 1.jpg"/>
  </g>
  <g>
    <g>
      <path class="cls-2" d="m293.66,366.38c-1.94,0-3.52-1.58-3.52-3.52v-62.15c0-1.94,1.58-3.52,3.52-3.52s3.52,1.58,3.52,3.52v62.15c0,1.94-1.58,3.52-3.52,3.52Z"/>
      <path class="cls-2" d="m324.65,351.11c-1.94,0-3.52-1.58-3.52-3.52v-46.89c0-1.94,1.58-3.52,3.52-3.52s3.52,1.58,3.52,3.52v46.89c0,1.94-1.58,3.52-3.52,3.52Z"/>
      <path class="cls-2" d="m262.68,374.65c-1.94,0-3.52-1.58-3.52-3.52v-70.42c0-1.94,1.58-3.52,3.52-3.52s3.52,1.58,3.52,3.52v70.42c0,1.94-1.58,3.52-3.52,3.52Z"/>
      <path class="cls-2" d="m293.66,191.55c-14.37,0-26.06-11.69-26.06-26.06s11.69-26.06,26.06-26.06,26.06,11.69,26.06,26.06-11.69,26.06-26.06,26.06Zm0-45.07c-10.49,0-19.01,8.53-19.01,19.01s8.53,19.01,19.01,19.01,19.01-8.53,19.01-19.01-8.53-19.01-19.01-19.01Z"/>
      <path class="cls-2" d="m324.65,304.23c-1.94,0-3.52-1.58-3.52-3.52v-61.97c0-1.94,1.58-3.52,3.52-3.52s3.52,1.58,3.52,3.52v58.17c10.37-1.69,18.31-10.71,18.31-21.55v-36.62c0-16.7-13.58-30.28-30.28-30.28h-45.07c-16.7,0-30.28,13.58-30.28,30.28v36.62c0,10.84,7.94,19.86,18.31,21.55v-58.17c0-1.94,1.58-3.52,3.52-3.52s3.52,1.58,3.52,3.52v61.97c0,1.94-1.58,3.52-3.52,3.52-15.92,0-28.87-12.95-28.87-28.87v-36.62c0-20.58,16.74-37.32,37.32-37.32h45.07c20.58,0,37.32,16.74,37.32,37.32v36.62c0,15.92-12.95,28.87-28.87,28.87Z"/>
      <path class="cls-2" d="m175.35,351.11c-1.94,0-3.52-1.58-3.52-3.52v-35.62c0-1.94,1.58-3.52,3.52-3.52s3.52,1.58,3.52,3.52v35.62c0,1.94-1.58,3.52-3.52,3.52Z"/>
      <path class="cls-2" d="m237.32,374.65c-1.94,0-3.52-1.58-3.52-3.52v-59.15c0-1.94,1.58-3.52,3.52-3.52s3.52,1.58,3.52,3.52v59.15c0,1.94-1.58,3.52-3.52,3.52Z"/>
      <path class="cls-2" d="m206.34,366.38c-1.94,0-3.52-1.58-3.52-3.52v-50.89c0-1.94,1.58-3.52,3.52-3.52s3.52,1.58,3.52,3.52v50.89c0,1.94-1.58,3.52-3.52,3.52Z"/>
      <path class="cls-2" d="m206.34,208.45c-14.37,0-26.06-11.69-26.06-26.06s11.69-26.06,26.06-26.06,26.06,11.69,26.06,26.06-11.69,26.06-26.06,26.06Zm0-45.07c-10.49,0-19.01,8.53-19.01,19.01s8.53,19.01,19.01,19.01,19.01-8.53,19.01-19.01-8.53-19.01-19.01-19.01Z"/>
      <path class="cls-2" d="m175.35,315.49c-15.92,0-28.87-12.95-28.87-28.87v-30.99c0-20.58,16.74-37.32,37.32-37.32h39.44c1.94,0,3.52,1.58,3.52,3.52s-1.58,3.52-3.52,3.52h-39.44c-16.7,0-30.28,13.58-30.28,30.28v30.99c0,10.84,7.94,19.86,18.31,21.55v-52.53c0-1.94,1.58-3.52,3.52-3.52s3.52,1.58,3.52,3.52v56.34c0,1.94-1.58,3.52-3.52,3.52Z"/>
    </g>
    <g>
      <path class="cls-2" d="m350,174.65c-1.94,0-3.52-1.58-3.52-3.52v-28.17c0-1.94,1.58-3.52,3.52-3.52h28.17c1.94,0,3.52,1.58,3.52,3.52s-1.58,3.52-3.52,3.52h-24.65v24.65c0,1.94-1.58,3.52-3.52,3.52Z"/>
      <path class="cls-2" d="m250,400c-24.98,0-49.71-6.26-71.53-18.12-1.71-.93-2.34-3.07-1.41-4.78.93-1.71,3.05-2.34,4.78-1.41,20.79,11.3,44.35,17.26,68.16,17.26,78.83,0,142.96-64.13,142.96-142.96,0-39.44-16.54-77.52-45.37-104.47-1.42-1.33-1.5-3.56-.17-4.98,1.33-1.42,3.57-1.5,4.98-.17,30.25,28.28,47.6,68.23,47.6,109.61,0,82.71-67.29,150-150,150Z"/>
      <path class="cls-2" d="m150.01,360.56c-.86,0-1.73-.31-2.4-.95-30.25-28.28-47.6-68.23-47.6-109.61,0-82.71,67.29-150,150-150,24.98,0,49.71,6.26,71.53,18.12,1.71.93,2.34,3.07,1.41,4.78-.93,1.71-3.04,2.34-4.78,1.41-20.79-11.3-44.35-17.26-68.16-17.26-78.83,0-142.96,64.13-142.96,142.96,0,39.44,16.54,77.52,45.37,104.47,1.42,1.33,1.5,3.56.17,4.98-.69.74-1.63,1.12-2.57,1.12Z"/>
      <path class="cls-2" d="m150,360.56h-28.17c-1.94,0-3.52-1.58-3.52-3.52s1.58-3.52,3.52-3.52h24.65v-24.65c0-1.94,1.58-3.52,3.52-3.52s3.52,1.58,3.52,3.52v28.17c0,1.94-1.58,3.52-3.52,3.52Z"/>
    </g>
  </g>
</svg>